<svg width="398" height="86" viewBox="0 0 398 86" fill="none" xmlns="http://www.w3.org/2000/svg">
<path d="M382.08 85.2147L46.9285 85.2147C41.9722 85.2147 37.917 81.1746 37.917 76.2368L37.917 34.564C37.917 29.6261 41.9722 25.5861 46.9285 25.5861L382.08 25.5861C387.036 25.5861 391.091 29.6261 391.091 34.564L391.091 76.2368C391.091 81.1746 387.036 85.2147 382.08 85.2147Z" fill="#40A483"/>
<path d="M388.989 77.4337L53.8372 77.4337C48.8809 77.4337 44.8257 73.3936 44.8257 68.4558L44.8257 26.783C44.8257 21.8451 48.8809 17.8051 53.8372 17.8051L388.989 17.8051C393.945 17.8051 398 21.8451 398 26.783L398 68.4558C398 73.3936 393.945 77.4337 388.989 77.4337Z" fill="#365965"/>
<path d="M78.1682 60.8246L15.8389 60.8246C10.8826 60.8246 6.82748 56.7845 6.82748 51.8466L6.82748 43.9908C6.82748 39.0529 10.8826 35.0128 15.8389 35.0128L78.1682 35.0128C83.1245 35.0128 87.1797 39.0529 87.1797 43.9908L87.1797 51.8466C87.1797 56.7845 83.1245 60.8246 78.1682 60.8246Z" fill="#3F5965"/>
<path d="M6.82748 38.9033C6.82748 20.274 21.9967 5.08618 40.7706 5.08618C59.4694 5.08618 74.7138 20.1991 74.7138 38.9033" fill="#3F5965"/>
<path d="M39.6564 26.7064L39.6564 51.9921C43.188 51.9921 46.0833 50.8555 48.3424 48.5821C50.8874 46.0371 52.1599 42.9559 52.1599 39.3385C52.1599 35.7355 50.8874 32.6543 48.3424 30.095C46.0833 27.8359 43.188 26.7064 39.6564 26.7064ZM38.4769 22.1811C44.053 22.2097 48.3996 23.7896 51.5165 26.9209C54.9337 30.3666 56.6423 34.5059 56.6423 39.3385C56.6423 44.1855 54.9337 48.3247 51.5165 51.7562C48.3996 54.8875 44.053 56.4674 38.4769 56.496L35.217 56.496L35.217 22.1811L38.4769 22.1811Z" fill="white"/>
<path d="M39.6442 11.4457L39.6442 3.81445C39.6442 1.7944 41.2963 0.148437 43.3239 0.148437C45.3515 0.148437 47.0036 1.7944 47.0036 3.81445L47.0036 11.4457C47.0036 13.4658 45.3515 15.1118 43.3239 15.1118C41.2963 15.1866 39.6442 13.5406 39.6442 11.4457ZM85.9781 42.6443C85.9781 44.6643 84.3261 46.3103 82.2985 46.3103L74.6387 46.3103C72.6112 46.3103 70.959 44.6643 70.959 42.6443C70.959 40.6242 72.6112 38.9783 74.6387 38.9783L82.2985 38.9783C84.3261 38.9034 85.9781 40.5494 85.9781 42.6443ZM12.0842 46.3103L4.42442 46.3103C2.39684 46.3103 0.74472 44.6643 0.74472 42.6443C0.74472 40.6242 2.39684 38.9783 4.42442 38.9783L12.0842 38.9783C14.1118 38.9783 15.7638 40.6242 15.7638 42.6443C15.7638 44.6643 14.1118 46.3103 12.0842 46.3103ZM62.7737 23.1919C61.2717 21.6956 61.2717 19.3763 62.7737 17.9548L68.1805 12.568C69.6824 11.0717 72.0104 11.0717 73.4372 12.568C74.9391 14.0643 74.9391 16.3836 73.4372 17.8052L68.0303 23.1919C67.2794 23.9401 66.3782 24.3142 65.402 24.3142C64.5759 24.3142 63.5246 23.9401 62.7737 23.1919ZM13.2106 17.7303C11.7087 16.234 11.7087 13.9147 13.2106 12.4932C14.7125 10.9968 17.0405 10.9968 18.4673 12.4932L23.8741 17.88C25.376 19.3763 25.376 21.6956 23.8741 23.1171C23.1232 23.8653 22.222 24.2394 21.2458 24.2394C20.2695 24.2394 19.3684 23.8653 18.6174 23.1171L13.2106 17.7303Z" fill="#40A483"/>
</svg>
