<svg width="398" height="86" viewBox="0 0 398 86" fill="none" xmlns="http://www.w3.org/2000/svg">
<path d="M381.41 85.2147L46.2587 85.2147C41.3024 85.2147 37.2472 81.1746 37.2472 76.2367L37.2472 34.564C37.2472 29.6261 41.3024 25.5861 46.2587 25.5861L381.41 25.5861C386.366 25.5861 390.421 29.6261 390.421 34.564L390.421 76.2367C390.421 81.1746 386.366 85.2147 381.41 85.2147Z" fill="#40A483"/>
<path d="M388.319 77.4339L53.0924 77.4339C48.1361 77.4339 44.081 73.3938 44.081 68.4559L44.081 26.7832C44.081 21.8453 48.1361 17.8052 53.0924 17.8052L388.244 17.8052C393.2 17.8052 397.255 21.8453 397.255 26.7832L397.255 68.4559C397.33 73.3938 393.275 77.4339 388.319 77.4339Z" fill="#365965"/>
<path d="M78.6249 60.8246L16.2956 60.8246C11.3393 60.8246 7.28415 56.7845 7.28415 51.8466L7.28415 43.9909C7.28415 39.053 11.3393 35.0129 16.2956 35.0129L78.6249 35.0129C83.5812 35.0129 87.6364 39.053 87.6364 43.9909L87.6364 51.8466C87.6364 56.7845 83.5812 60.8246 78.6249 60.8246Z" fill="#3F5965"/>
<path d="M7.28415 38.9033C7.28415 20.274 22.4534 5.0863 41.2273 5.0863C60.0012 5.0863 75.1705 20.1992 75.1705 38.9033" fill="#3F5965"/>
<path d="M38.9745 11.4457L38.9745 3.81444C38.9745 1.7944 40.6266 0.148437 42.6542 0.148437C44.6818 0.148437 46.3339 1.7944 46.3339 3.81444L46.3339 11.4457C46.3339 13.4658 44.6818 15.1117 42.6542 15.1117C40.6266 15.1117 38.9745 13.5406 38.9745 11.4457ZM85.3084 42.6442C85.3084 44.6643 83.6563 46.3102 81.6288 46.3102L73.8939 46.3102C71.8663 46.3102 70.2142 44.6643 70.2142 42.6442C70.2142 40.6242 71.8663 38.9782 73.8939 38.9782L81.5537 38.9782C83.6563 38.9034 85.3084 40.5494 85.3084 42.6442ZM11.4144 46.3102L3.67959 46.3102C1.65201 46.3102 -9.16097e-05 44.6643 -9.16071e-05 42.6442C-9.16045e-05 40.6242 1.65201 38.9782 3.67959 38.9782L11.3393 38.9782C13.3669 38.9782 15.019 40.6242 15.019 42.6442C15.019 44.6643 13.442 46.3102 11.4144 46.3102ZM62.1039 23.1919C60.602 21.6956 60.602 19.3763 62.1039 17.9548L67.5108 12.568C69.0127 11.0716 71.3407 11.0716 72.7675 12.568C74.2694 14.0643 74.2694 16.3836 72.7675 17.8051L67.3606 23.1919C66.6096 23.9401 65.7085 24.3142 64.7323 24.3142C63.9062 24.3142 62.8549 23.9401 62.1039 23.1919ZM12.5409 17.7303C11.039 16.234 11.039 13.9147 12.5409 12.4932C14.0428 10.9968 16.3707 10.9968 17.7976 12.4932L23.2044 17.88C24.7063 19.3763 24.7063 21.6956 23.2044 23.1171C22.4535 23.8653 21.5523 24.2394 20.5761 24.2394C19.6749 24.2394 18.6987 23.8653 17.9477 23.1171L12.5409 17.7303Z" fill="#40A483"/>
<path d="M52.768 47.3287L56.0923 50.3098C52.0317 54.0129 47.7352 55.8645 43.2028 55.8645C38.3558 55.8645 34.2237 54.1559 30.8065 50.7387C27.3893 47.3215 25.6808 43.1894 25.6808 38.3425C25.6808 33.5098 27.3893 29.3777 30.8065 25.9462C34.2237 22.5147 38.3558 20.799 43.2028 20.799C47.7352 20.799 52.0317 22.6506 56.0923 26.3537L52.768 29.3777C49.7083 26.6611 46.5199 25.3028 43.2028 25.3028C39.614 25.3028 36.54 26.5753 33.9807 29.1203C31.4356 31.6654 30.1631 34.7394 30.1631 38.3425C30.1631 41.9598 31.4356 45.041 33.9807 47.586C36.54 50.131 39.614 51.4035 43.2028 51.4035C46.5199 51.4035 49.7083 50.0452 52.768 47.3287Z" fill="white"/>
</svg>
