<svg width="86" height="57" viewBox="0 0 86 57" fill="none" xmlns="http://www.w3.org/2000/svg">
<path d="M38.9745 12.3213L38.9745 4.61516C38.9745 2.59512 40.6266 0.949158 42.6541 0.949158C44.6817 0.949158 46.3338 2.59512 46.3338 4.61516L46.3338 12.2464C46.3338 14.2665 44.6817 15.9124 42.6541 15.9124C40.6266 15.9124 38.9745 14.3413 38.9745 12.3213ZM85.3084 43.4449C85.3084 45.4649 83.6563 47.1109 81.6287 47.1109L73.8939 47.1109C71.8663 47.1109 70.2142 45.4649 70.2142 43.4449C70.2142 41.4248 71.8663 39.7789 73.8939 39.7789L81.5536 39.7789C83.6563 39.7789 85.3084 41.4248 85.3084 43.4449ZM11.4144 47.1109L3.67956 47.1109C1.65198 47.1109 -0.000122095 45.4649 -0.000122093 43.4449C-0.000122092 41.4248 1.65198 39.7789 3.67956 39.7789L11.3393 39.7789C13.3669 39.7789 15.019 41.4248 15.019 43.4449C15.019 45.4649 13.442 47.1109 11.4144 47.1109ZM62.1039 24.0674C60.602 22.5711 60.602 20.2518 62.1039 18.8303L67.5108 13.4435C69.0127 11.9472 71.3406 11.9472 72.7674 13.4435C74.2694 14.9398 74.2694 17.2591 72.7674 18.6806L67.3606 24.0674C66.6096 24.8156 65.7085 25.1897 64.7322 25.1897C63.9062 25.1897 62.8548 24.8156 62.1039 24.0674ZM12.5408 18.6058C11.0389 17.1095 11.0389 14.7902 12.5408 13.3687C14.0427 11.9472 16.3707 11.8724 17.7975 13.3687L23.2044 18.7555C24.7063 20.2518 24.7063 22.5711 23.2044 23.9926C22.4534 24.7408 21.5523 25.1149 20.5761 25.1149C19.6749 25.1149 18.6987 24.7408 17.9477 23.9926L12.5408 18.6058Z" fill="#40A483"/>
<path d="M45.6935 40.32L42.7553 32.2774L39.8385 40.32L45.6935 40.32ZM43.9563 22.5835L56.4383 56.8983L51.72 56.8983L47.302 44.7594L38.2085 44.7594L33.812 56.8983L29.0722 56.8983L41.5542 22.5835L43.9563 22.5835Z" fill="white"/>
</svg>
