<svg width="398" height="87" viewBox="0 0 398 87" fill="none" xmlns="http://www.w3.org/2000/svg">
<path d="M382.08 86.0903L46.9285 86.0903C41.9722 86.0903 37.917 82.0502 37.917 77.1123L37.917 35.3647C37.917 30.4268 41.9722 26.3867 46.9285 26.3867L382.08 26.3867C387.036 26.3867 391.091 30.4268 391.091 35.3647L391.091 77.0375C391.091 82.0502 387.036 86.0903 382.08 86.0903Z" fill="#40A483"/>
<path d="M388.989 78.3093L53.8372 78.3093C48.8809 78.3093 44.8258 74.2693 44.8258 69.3314L44.8258 27.5838C44.8258 22.6459 48.8809 18.6058 53.8372 18.6058L388.989 18.6058C393.945 18.6058 398 22.6459 398 27.5838L398 69.2566C398 74.2693 393.945 78.3093 388.989 78.3093Z" fill="#365965"/>
<path d="M78.1682 64.1691L15.8389 64.1691C10.8826 64.1691 6.82748 60.129 6.82748 55.1911L6.82748 47.4102C6.82748 42.4723 10.8826 38.4323 15.8389 38.4323L78.1682 38.4323C83.1245 38.4323 87.1797 42.4723 87.1797 47.4102L87.1797 55.2659C87.1797 60.129 83.1245 64.1691 78.1682 64.1691Z" fill="#3F5965"/>
<path d="M6.82748 42.2478C6.82748 23.6185 21.9967 8.43079 40.7706 8.43079C59.4694 8.43079 74.7138 23.5437 74.7138 42.2478" fill="#3F5965"/>
<path d="M42.1657 26.5678C44.1531 26.5678 45.8546 27.2756 47.27 28.6911C48.6855 30.0923 49.3933 31.7866 49.3933 33.774C49.3933 35.8186 48.3638 37.0839 46.3049 37.57C47.7919 37.7845 49.4791 38.8426 51.3664 40.7442C53.268 42.6458 54.2188 45.2766 54.2188 48.6366C54.2188 51.9966 53.0392 54.899 50.6801 57.344C48.4639 59.6459 46.2406 60.8112 44.0101 60.8398L44.0101 60.8827L35.217 60.8827L35.217 26.5678L42.1657 26.5678ZM39.6564 41.0015L39.6564 56.4218L44.0101 56.4218L44.0101 56.3574C44.9252 56.3002 46.0619 55.5639 47.4202 54.1484C48.9214 52.6042 49.6721 50.767 49.6721 48.6366C49.6721 46.5348 48.9214 44.7404 47.4202 43.2534C45.9332 41.7522 44.1388 41.0015 42.037 41.0015L39.6564 41.0015ZM39.6564 31.0073L39.6564 36.4334L42.5518 36.4334C43.2095 36.3762 43.7742 36.126 44.246 35.6827C44.7608 35.2109 45.0181 34.5746 45.0181 33.774C45.0181 32.9733 44.7465 32.3156 44.2032 31.8009C43.6741 31.2718 42.995 31.0073 42.1657 31.0073L39.6564 31.0073Z" fill="white"/>
<path d="M39.6441 12.3213L39.6441 4.61516C39.6441 2.59512 41.2962 0.949158 43.3238 0.949158C45.3514 0.949158 47.0035 2.59512 47.0035 4.61516L47.0035 12.2464C47.0035 14.2665 45.3514 15.9124 43.3238 15.9124C41.2962 15.9873 39.6441 14.3413 39.6441 12.3213ZM85.9781 43.4449C85.9781 45.4649 84.326 47.1109 82.2984 47.1109L74.6386 47.1109C72.6111 47.1109 70.959 45.4649 70.959 43.4449C70.959 41.4248 72.6111 39.7789 74.6386 39.7789L82.2984 39.7789C84.326 39.7789 85.9781 41.4248 85.9781 43.4449ZM12.0841 47.1109L4.42436 47.1109C2.39678 47.1109 0.744659 45.4649 0.744659 43.4449C0.744659 41.4248 2.39678 39.7789 4.42436 39.7789L12.0841 39.7789C14.1117 39.7789 15.7638 41.4248 15.7638 43.4449C15.7638 45.4649 14.1117 47.1109 12.0841 47.1109ZM62.7736 24.0674C61.2717 22.5711 61.2717 20.2518 62.7736 18.8303L68.1804 13.4435C69.6823 11.9472 72.0103 11.9472 73.4371 13.4435C74.939 14.9398 74.939 17.2591 73.4371 18.6806L68.0303 24.0674C67.2793 24.8156 66.3782 25.1897 65.4019 25.1897C64.5759 25.1897 63.5245 24.8156 62.7736 24.0674ZM13.2105 18.6058C11.7086 17.1095 11.7086 14.7902 13.2105 13.3687C14.7125 11.8724 17.0404 11.8724 18.4672 13.3687L23.8741 18.7555C25.376 20.2518 25.376 22.5711 23.8741 23.9926C23.1231 24.7408 22.222 25.1149 21.2457 25.1149C20.2695 25.1149 19.3683 24.7408 18.6174 23.9926L13.2105 18.6058Z" fill="#40A483"/>
</svg>
