<svg width="398" height="87" viewBox="0 0 398 87" fill="none" xmlns="http://www.w3.org/2000/svg">
<path d="M381.41 86.0903L46.2587 86.0903C41.3024 86.0903 37.2473 82.0502 37.2473 77.1123L37.2473 35.3647C37.2473 30.4268 41.3024 26.3867 46.2587 26.3867L381.41 26.3867C386.366 26.3867 390.421 30.4268 390.421 35.3647L390.421 77.0375C390.421 82.0502 386.366 86.0903 381.41 86.0903Z" fill="#40A483"/>
<path d="M388.319 78.3093L53.0924 78.3093C48.1361 78.3093 44.0809 74.2692 44.0809 69.3313L44.0809 27.5838C44.0809 22.6459 48.1361 18.6058 53.0924 18.6058L388.244 18.6058C393.2 18.6058 397.255 22.6459 397.255 27.5838L397.255 69.2565C397.33 74.2692 393.275 78.3093 388.319 78.3093Z" fill="#365965"/>
<path d="M78.6249 64.169L16.2956 64.169C11.3393 64.169 7.28412 60.1289 7.28412 55.191L7.28412 47.4101C7.28412 42.4722 11.3393 38.4321 16.2956 38.4321L78.6249 38.4321C83.5812 38.4321 87.6364 42.4722 87.6364 47.4101L87.6364 55.2658C87.6364 60.1289 83.5812 64.169 78.6249 64.169Z" fill="#3F5965"/>
<path d="M7.28412 42.2479C7.28412 23.6185 22.4534 8.43079 41.2273 8.43079C60.0012 8.43079 75.1705 23.5437 75.1705 42.2479" fill="#3F5965"/>
<path d="M38.9745 12.3213L38.9745 4.61516C38.9745 2.59512 40.6266 0.949158 42.6541 0.949158C44.6817 0.949158 46.3338 2.59512 46.3338 4.61516L46.3338 12.2464C46.3338 14.2665 44.6817 15.9124 42.6541 15.9124C40.6266 15.9124 38.9745 14.3413 38.9745 12.3213ZM85.3084 43.4449C85.3084 45.4649 83.6563 47.1109 81.6287 47.1109L73.8939 47.1109C71.8663 47.1109 70.2142 45.4649 70.2142 43.4449C70.2142 41.4248 71.8663 39.7789 73.8939 39.7789L81.5536 39.7789C83.6563 39.7789 85.3084 41.4248 85.3084 43.4449ZM11.4144 47.1109L3.67956 47.1109C1.65198 47.1109 -0.000122095 45.4649 -0.000122093 43.4449C-0.000122092 41.4248 1.65198 39.7789 3.67956 39.7789L11.3393 39.7789C13.3669 39.7789 15.019 41.4248 15.019 43.4449C15.019 45.4649 13.442 47.1109 11.4144 47.1109ZM62.1039 24.0674C60.602 22.5711 60.602 20.2518 62.1039 18.8303L67.5108 13.4435C69.0127 11.9472 71.3406 11.9472 72.7674 13.4435C74.2694 14.9398 74.2694 17.2591 72.7674 18.6806L67.3606 24.0674C66.6096 24.8156 65.7085 25.1897 64.7322 25.1897C63.9062 25.1897 62.8548 24.8156 62.1039 24.0674ZM12.5408 18.6058C11.0389 17.1095 11.0389 14.7902 12.5408 13.3687C14.0427 11.9472 16.3707 11.8724 17.7975 13.3687L23.2044 18.7555C24.7063 20.2518 24.7063 22.5711 23.2044 23.9926C22.4534 24.7408 21.5523 25.1149 20.5761 25.1149C19.6749 25.1149 18.6987 24.7408 17.9477 23.9926L12.5408 18.6058Z" fill="#40A483"/>
<path d="M45.6935 40.32L42.7553 32.2774L39.8385 40.32L45.6935 40.32ZM43.9563 22.5835L56.4383 56.8983L51.72 56.8983L47.302 44.7594L38.2085 44.7594L33.812 56.8983L29.0722 56.8983L41.5542 22.5835L43.9563 22.5835Z" fill="white"/>
</svg>
