<?xml version="1.0" encoding="utf-8"?>
<!-- Generator: Adobe Illustrator 23.1.1, SVG Export Plug-In . SVG Version: 6.00 Build 0)  -->
<svg version="1.1" id="Calque_1" xmlns="http://www.w3.org/2000/svg" xmlns:xlink="http://www.w3.org/1999/xlink" x="0px" y="0px"
	 viewBox="0 0 200 60" style="enable-background:new 0 0 200 60;" xml:space="preserve">
<style type="text/css">
	.st0{fill:#05A587;}
	.st1{fill:#375A66;}
</style>
<g>
	<g>
		<path class="st0" d="M28.4,27v-1.2h3.6v13.4c0,3.5-1,6.2-2.9,8.1c-1.9,1.7-4.3,2.6-7.1,2.6c-2.8,0-5.1-0.9-7.1-2.6
			c-0.4-0.4-1-1.2-1.9-2.4l3.6-1.3c0.5,0.6,0.8,0.9,0.9,1.1c1.2,1.2,2.7,1.8,4.4,1.8c2.9,0,4.9-1.9,6-5.7C27,42.9,25.1,44,22.3,44
			s-5.1-0.9-7-2.8c-1.9-1.9-2.9-4.2-2.9-7s1-5.1,2.9-7s4.3-2.9,7-2.9C24.6,24.3,26.7,25.2,28.4,27z M28.4,32.8
			c-0.2-1.1-0.8-2.1-1.7-3C25.5,28.6,24,28,22.3,28s-3.2,0.6-4.4,1.8S16,32.5,16,34.2c0,1.7,0.6,3.2,1.8,4.4
			c1.2,1.2,2.7,1.8,4.4,1.8s3.2-0.6,4.4-1.8c0.9-0.9,1.5-1.9,1.7-3V32.8z"/>
		<path class="st0" d="M41,28.2c1.4-1.8,3-2.8,5-2.9V29c-1.3,0.1-2.4,0.5-3.2,1.3c-1.2,1.2-1.8,2.6-1.8,4.2v9.3h-3.6v-18H41V28.2z"
			/>
		<path class="st0" d="M55.1,39.7c0.6,0.5,1.7,0.8,3.3,0.8c1.7,0,3.2-0.6,4.4-1.8c0.2-0.2,0.5-0.5,0.9-1.1l3.6,1.3
			c-0.9,1.2-1.5,2-1.9,2.4c-1.9,1.9-4.3,2.9-7.1,2.9c-2.7,0-5.1-1-7-2.9c-1.9-1.9-2.9-4.3-2.9-7.1s1-5.1,2.9-7.1s4.3-2.9,7-2.9
			c2.4,0,4.4,0.7,6.2,2.1c0.3,0.2,0.6,0.5,0.9,0.8c0.1,0.1,0.4,0.5,1,1.1l-1.8,1.8L55.1,39.7z M61.2,28.5c-0.4-0.3-1.3-0.5-2.7-0.5
			c-1.7,0-3.2,0.6-4.4,1.8c-1.2,1.2-1.8,2.7-1.8,4.4c0,1.4,0.2,2.3,0.5,2.7L61.2,28.5z"/>
		<path class="st0" d="M77.2,39.7c0.6,0.5,1.7,0.8,3.3,0.8c1.7,0,3.2-0.6,4.4-1.8c0.2-0.2,0.5-0.5,0.9-1.1l3.6,1.3
			c-0.9,1.2-1.5,2-1.9,2.4c-1.9,1.9-4.3,2.9-7.1,2.9c-2.7,0-5.1-1-7-2.9c-1.9-1.9-2.9-4.3-2.9-7.1s1-5.1,2.9-7.1s4.3-2.9,7-2.9
			c2.4,0,4.4,0.7,6.2,2.1c0.3,0.2,0.6,0.5,0.9,0.8c0.1,0.1,0.4,0.5,1,1.1l-1.8,1.8L77.2,39.7z M83.3,28.5c-0.4-0.3-1.3-0.5-2.7-0.5
			c-1.7,0-3.2,0.6-4.4,1.8c-1.2,1.2-1.8,2.7-1.8,4.4c0,1.4,0.2,2.3,0.5,2.7L83.3,28.5z"/>
		<path class="st0" d="M97.3,30.6v13.2h-3.6v-18h3.6v2.1c0.8-2.1,2.3-3.1,4.6-3.1c1.9,0,3.5,0.7,4.6,2.1c1.1,1.4,1.7,3.1,1.8,5.2
			v11.7h-3.6V32.2c0-1-0.4-1.9-1.1-2.7s-1.7-1.1-2.7-1.1c-1,0-1.9,0.4-2.7,1.1C97.7,29.9,97.5,30.3,97.3,30.6z"/>
		<path class="st1" d="M113.6,25.7h3.6v1.7c0.7-1.8,2-2.6,4-2.6c2,0,3.1,1,3.3,3c0.6-2,2.1-3,4.7-3c2.5,0,3.8,1.5,3.8,4.6v14.3h-3.6
			V31.1c0-1.8-0.7-2.7-2.2-2.7c-0.6,0-1.1,0.2-1.5,0.6c-0.4,0.4-0.6,1.8-0.6,4.2v10.5h-3.6l0-12.7c0-1.8-0.7-2.7-2.2-2.7
			c-0.6,0-1.1,0.2-1.5,0.6c-0.4,0.4-0.6,1.3-0.6,2.9v11.8h-3.6V25.7z"/>
		<path class="st1" d="M142.4,25.7v18h-3.6v-18H142.4z"/>
		<path class="st1" d="M151.6,30.6v13.2h-3.6v-18h3.6v2.1c0.8-2.1,2.3-3.1,4.6-3.1c1.9,0,3.5,0.7,4.6,2.1s1.7,3.1,1.8,5.2v11.7H159
			V32.2c0-1-0.4-1.9-1.1-2.7c-0.8-0.7-1.7-1.1-2.7-1.1c-1,0-1.9,0.4-2.7,1.1C152,29.9,151.7,30.3,151.6,30.6z"/>
		<path class="st1" d="M183.5,27V15.7h3.6v28h-3.6v-2.2c-1.8,1.8-3.8,2.7-6.1,2.7c-2.8,0-5.1-1-7-2.9c-1.9-1.9-2.9-4.3-2.9-7.1
			s1-5.1,2.9-7.1s4.3-2.9,7-2.9C179.7,24.2,181.8,25.2,183.5,27z M183.5,35.6v-2.7c-0.2-1.1-0.8-2.2-1.7-3.1
			c-1.2-1.2-2.7-1.8-4.4-1.8s-3.2,0.6-4.4,1.8c-1.2,1.2-1.8,2.7-1.8,4.4c0,1.7,0.6,3.2,1.8,4.4c1.2,1.2,2.7,1.8,4.4,1.8
			s3.2-0.6,4.4-1.8C182.7,37.7,183.3,36.7,183.5,35.6z"/>
	</g>
	<path class="st0" d="M139.4,12v-1.9c0-0.5,0.4-0.9,0.9-0.9c0.5,0,0.9,0.4,0.9,0.9V12c0,0.5-0.4,0.9-0.9,0.9
		C139.9,12.9,139.4,12.5,139.4,12z M150.9,19.7c0,0.5-0.4,0.9-0.9,0.9h-1.9c-0.5,0-0.9-0.4-0.9-0.9s0.4-0.9,0.9-0.9h1.9
		C150.5,18.8,150.9,19.2,150.9,19.7z M132.7,20.6h-1.9c-0.5,0-0.9-0.4-0.9-0.9s0.4-0.9,0.9-0.9h1.9c0.5,0,0.9,0.4,0.9,0.9
		S133.2,20.6,132.7,20.6z M145.2,14.9c-0.4-0.4-0.4-0.9,0-1.3l1.3-1.3c0.4-0.4,0.9-0.4,1.3,0c0.4,0.4,0.4,0.9,0,1.3l-1.3,1.3
		c-0.2,0.2-0.4,0.3-0.6,0.3C145.6,15.2,145.3,15.1,145.2,14.9z M132.9,13.6c-0.4-0.4-0.4-0.9,0-1.3c0.4-0.4,0.9-0.4,1.3,0l1.3,1.3
		c0.4,0.4,0.4,0.9,0,1.3c-0.2,0.2-0.4,0.3-0.6,0.3c-0.2,0-0.5-0.1-0.6-0.3L132.9,13.6z"/>
	<path class="st1" d="M137.5,19.3c0,0.8,0.3,1.6,0.9,2.1c0.4,0.4,0.7,1,0.8,1.6c0,0.2,0.2,0.4,0.5,0.4h1.9c0.2,0,0.5-0.2,0.5-0.4
		c0.1-0.6,0.4-1.1,0.8-1.6c0.5-0.6,0.9-1.3,0.9-2.2c0-1.7-1.4-3.1-3.2-3.1C138.9,16.1,137.5,17.5,137.5,19.3z M140.6,17
		c0.2,0,0.3,0.2,0.3,0.3c0,0.2-0.2,0.3-0.4,0.4c-0.8,0-1.6,0.7-1.6,1.6c0,0.2-0.2,0.3-0.3,0.3c-0.2,0-0.3-0.2-0.3-0.3
		C138.4,18,139.4,17,140.6,17z"/>
</g>
</svg>
